<?xml version="1.0" encoding="UTF-8" standalone="no"?>
<svg
   xmlns:dc="http://purl.org/dc/elements/1.1/"
   xmlns:cc="http://creativecommons.org/ns#"
   xmlns:rdf="http://www.w3.org/1999/02/22-rdf-syntax-ns#"
   xmlns:svg="http://www.w3.org/2000/svg"
   xmlns="http://www.w3.org/2000/svg"
   xmlns:sodipodi="http://sodipodi.sourceforge.net/DTD/sodipodi-0.dtd"
   xmlns:inkscape="http://www.inkscape.org/namespaces/inkscape"
   width="130"
   height="60"
   viewBox="0 0 104 48"
   version="1.1"
   id="svg2"
   inkscape:version="0.48.4 r9939"
   sodipodi:docname="solution_icon_smart-money.svg">
  <metadata
     id="metadata24">
    <rdf:RDF>
      <cc:Work
         rdf:about="">
        <dc:format>image/svg+xml</dc:format>
        <dc:type
           rdf:resource="http://purl.org/dc/dcmitype/StillImage" />
        <dc:title />
      </cc:Work>
    </rdf:RDF>
  </metadata>
  <defs
     id="defs22" />
  <sodipodi:namedview
     pagecolor="#ffffff"
     bordercolor="#666666"
     borderopacity="1"
     objecttolerance="10"
     gridtolerance="10"
     guidetolerance="10"
     inkscape:pageopacity="0"
     inkscape:pageshadow="2"
     inkscape:window-width="640"
     inkscape:window-height="480"
     id="namedview20"
     showgrid="false"
     inkscape:zoom="2.2786765"
     inkscape:cx="85.234654"
     inkscape:cy="31.425388"
     inkscape:window-x="0"
     inkscape:window-y="0"
     inkscape:window-maximized="0"
     inkscape:current-layer="svg2" />
  <g
     id="g3001"
     transform="matrix(0.76267769,0,0,0.76267769,-8.88443,12.9133)"
     style="fill:#ffffff">
    <path
       style="fill:#ffffff"
       inkscape:connector-curvature="0"
       id="path6"
       d="m 106.28,-3.78 c 0.52,-1.83 0.14,-5.27 2.82,-5.23 2.85,-0.21 2.32,3.41 2.97,5.22 1.63,1.3 3.41,2.46 4.71,4.12 1.05,1.49 0.67,3.44 0.99,5.14 -0.98,0 -2.94,0.01 -3.92,0.01 -0.67,-1.34 -1.37,-2.65 -2.11,-3.94 -0.04,3.01 -0.03,6.02 -0.06,9.03 4.62,2.64 9.75,6.52 9.47,12.47 0.35,5.67 -4.2,9.79 -8.94,11.94 -0.78,2.12 -1.24,5.6 -4.41,4.39 -0.59,-1.47 -1.13,-2.97 -1.77,-4.42 -3.39,-1.72 -6.97,-3.85 -8.21,-7.69 -0.64,-1.71 -1.3,-4.92 1.23,-5.35 1.55,-0.83 2.09,1.34 2.75,2.23 1.12,2.3 2.65,4.36 4.67,5.93 0.23,-5.31 0.18,-10.63 -0.01,-15.94 -3.13,-2.11 -6.69,-4.89 -6.29,-9.14 -0.32,-4.09 3.08,-6.76 6.11,-8.77 z" />
    <path
       style="fill:#ffffff"
       inkscape:connector-curvature="0"
       id="path8"
       d="m 86.38,0.58 c 2.68,-0.22 6.67,-1.12 8.31,1.66 0.92,4.87 0.29,9.88 0.43,14.81 -0.19,6.3 0.45,12.64 -0.29,18.91 -0.57,3.23 -4.59,2.52 -6.98,2.53 -2.02,0.28 -3.88,-1.21 -3.83,-3.28 C 83.61,25.82 84.03,16.4 83.83,7 84,4.77 83.43,1.16 86.38,0.58 z" />
    <path
       style="fill:#ffffff"
       inkscape:connector-curvature="0"
       id="path12"
       d="m 70.39,7.34 c 2.76,-0.85 6.27,-1.19 8.78,0.48 1.5,2.76 0.82,6.12 1,9.15 -0.29,6.3 0.43,12.65 -0.35,18.92 -0.23,2.36 -2.86,2.75 -4.77,2.64 C 72.92,38.54 69.53,38.84 69.14,36 68.46,28.7 69.09,21.34 68.83,14.01 69.11,11.83 68.29,8.8 70.39,7.34 z" />
    <path
       style="fill:#ffffff"
       inkscape:connector-curvature="0"
       id="path14"
       d="m 56.35,10.58 c 2.67,-0.21 6.67,-1.13 8.29,1.65 1.01,4.84 0.29,9.84 0.51,14.75 -0.14,3.37 0.5,6.96 -0.8,10.16 -1.83,2.14 -5.1,1.25 -7.57,1.25 -2.26,0.05 -2.92,-2.5 -2.88,-4.3 -0.13,-6.05 -0.01,-12.1 -0.05,-18.15 0.07,-1.97 -0.04,-4.96 2.5,-5.36 z" />
    <path
       style="fill:#ffffff"
       inkscape:connector-curvature="0"
       id="path16"
       d="m 40.34,17.29 c 2.41,-0.83 5.1,-0.77 7.57,-0.23 2.11,0.54 2.04,3.09 2.18,4.81 0.09,4.66 0.33,9.36 -0.28,13.99 -0.24,2.33 -2.82,2.79 -4.73,2.67 -2.13,-0.01 -5.58,0.36 -5.95,-2.52 -0.52,-4.67 -0.3,-9.39 -0.26,-14.08 0.18,-1.58 -0.15,-3.7 1.47,-4.64 z" />
  </g>
</svg>
