<?xml version="1.0" encoding="UTF-8" standalone="no"?>
<!-- Created with Inkscape (http://www.inkscape.org/) -->

<svg
   xmlns:dc="http://purl.org/dc/elements/1.1/"
   xmlns:cc="http://creativecommons.org/ns#"
   xmlns:rdf="http://www.w3.org/1999/02/22-rdf-syntax-ns#"
   xmlns:svg="http://www.w3.org/2000/svg"
   xmlns="http://www.w3.org/2000/svg"
   xmlns:sodipodi="http://sodipodi.sourceforge.net/DTD/sodipodi-0.dtd"
   xmlns:inkscape="http://www.inkscape.org/namespaces/inkscape"
   width="130"
   height="60"
   id="svg2"
   version="1.1"
   inkscape:version="0.48.4 r9939"
   sodipodi:docname="solution_icon_optimize-efficnt.svg">
  <defs
     id="defs4" />
  <sodipodi:namedview
     id="base"
     pagecolor="#ffffff"
     bordercolor="#666666"
     borderopacity="1.0"
     inkscape:pageopacity="0.0"
     inkscape:pageshadow="2"
     inkscape:zoom="7.9195959"
     inkscape:cx="55.163227"
     inkscape:cy="29.41179"
     inkscape:document-units="px"
     inkscape:current-layer="layer1"
     showgrid="false"
     fit-margin-top="0"
     fit-margin-left="0"
     fit-margin-right="0"
     fit-margin-bottom="0"
     inkscape:window-width="1366"
     inkscape:window-height="705"
     inkscape:window-x="-8"
     inkscape:window-y="-8"
     inkscape:window-maximized="1" />
  <metadata
     id="metadata7">
    <rdf:RDF>
      <cc:Work
         rdf:about="">
        <dc:format>image/svg+xml</dc:format>
        <dc:type
           rdf:resource="http://purl.org/dc/dcmitype/StillImage" />
        <dc:title />
      </cc:Work>
    </rdf:RDF>
  </metadata>
  <g
     inkscape:label="Layer 1"
     inkscape:groupmode="layer"
     id="layer1"
     transform="translate(-523.28571,-695.29071)">
    <path
       inkscape:connector-curvature="0"
       id="path3875"
       d="m 565.63232,752.68591 c -1.28028,-1.28028 -0.46861,-4.12165 4.44146,-15.54791 5.04745,-11.74596 6.44487,-13.40576 9.07351,-10.77712 1.52148,1.52148 7.46992,-17.49191 7.46992,-23.87658 l 0,-5.0135 2.925,0.0897 c 5.68729,0.17444 7.425,1.11078 7.425,4.00087 0,2.48532 -0.25041,2.67754 -3.825,2.93617 -2.8898,0.20908 -3.82233,0.64918 -3.81407,1.8 0.006,0.83779 2.37901,7.18544 5.27333,14.10589 4.37727,10.46623 5.62432,12.66469 7.41408,13.07049 2.629,0.59609 9.90183,13.59337 9.56681,17.09687 l -0.21515,2.25 -22.55989,0.24011 c -12.40794,0.13206 -22.83669,-0.0367 -23.175,-0.375 z"
       style="fill:#f8f6f6" />
    <path
       inkscape:connector-curvature="0"
       id="path3873"
       d="m 565.89943,751.89938 c -0.8843,-1.06552 -0.90267,-1.81832 -0.0824,-3.375 0.58069,-1.10197 0.87243,-1.34418 0.6483,-0.53825 -0.87835,3.1584 1.16619,3.48467 21.83596,3.48467 17.55578,0 20.44129,-0.19652 21.87,-1.48949 1.50407,-1.36116 1.64587,-1.36388 1.64587,-0.0317 0,2.8725 -3.25978,3.32115 -24.13063,3.32115 -17.40001,0 -20.82805,-0.21578 -21.78715,-1.37142 z m 0.98156,-6.27858 c 0,-0.495 0.5788,-1.9125 1.28622,-3.15 0.70742,-1.2375 1.28622,-1.845 1.28622,-1.35 0,0.495 -0.5788,1.9125 -1.28622,3.15 -0.70742,1.2375 -1.28622,1.845 -1.28622,1.35 z m 2.7,-6.3 c 0,-0.495 0.5788,-1.9125 1.28622,-3.15 0.70742,-1.2375 1.28622,-1.845 1.28622,-1.35 0,0.495 -0.5788,1.9125 -1.28622,3.15 -0.70742,1.2375 -1.28622,1.845 -1.28622,1.35 z m 29.26132,-5.52881 c -0.82683,-2.15469 -0.18234,-2.32015 1.0916,-0.28026 0.6042,0.96749 0.73345,1.75907 0.28722,1.75907 -0.44624,0 -1.0667,-0.66547 -1.37882,-1.47881 z m -26.59754,-0.77119 c 0,-0.495 0.3926,-1.5075 0.87244,-2.25 0.47984,-0.7425 0.87244,-0.945 0.87244,-0.45 0,0.495 -0.3926,1.5075 -0.87244,2.25 -0.47984,0.7425 -0.87244,0.945 -0.87244,0.45 z m 24.83363,-3.63479 c -0.86849,-2.26323 -0.61228,-2.8472 0.44868,-1.02271 0.52532,0.90338 0.76553,1.8321 0.53381,2.06382 -0.23172,0.23172 -0.67384,-0.23678 -0.98249,-1.04111 z m -18.03608,-0.99402 c -0.31212,-0.81335 -0.35545,-1.69085 -0.0963,-1.95 0.25916,-0.25916 0.47119,0.0252 0.47119,0.63193 0,0.60671 0.405,0.85281 0.9,0.54688 0.495,-0.30593 0.9,0.0752 0.9,0.84689 0,1.85094 -1.45501,1.80029 -2.17489,-0.0757 z m 16.23608,-3.50598 c -0.86849,-2.26323 -0.61228,-2.8472 0.44868,-1.02271 0.52532,0.90338 0.76553,1.8321 0.53381,2.06382 -0.23172,0.23172 -0.67384,-0.23678 -0.98249,-1.04111 z m -13.02168,-2.21521 c 0,-0.7425 0.74722,-3.375 1.66049,-5.85 0.91327,-2.475 1.66049,-3.8925 1.66049,-3.15 0,0.7425 -0.74722,3.375 -1.66049,5.85 -0.91327,2.475 -1.66049,3.8925 -1.66049,3.15 z m 10.80669,-3.18854 c -1.50794,-3.30957 -1.22025,-4.01562 0.41027,-1.00689 0.76142,1.40501 1.21599,2.72297 1.01016,2.9288 -0.20583,0.20583 -0.84503,-0.65903 -1.42043,-1.92191 z m -2.28501,-5.39625 c -0.86849,-2.26323 -0.61228,-2.8472 0.44868,-1.02271 0.52532,0.90338 0.76553,1.8321 0.53381,2.06382 -0.23172,0.23172 -0.67384,-0.23678 -0.98249,-1.04111 z m -3.87312,-10.31521 c 0,-3.2175 0.16334,-4.53375 0.36299,-2.925 0.19964,1.60875 0.19964,4.24125 0,5.85 -0.19965,1.60875 -0.36299,0.2925 -0.36299,-2.925 z m 1.74098,0 c 0.009,-3.2175 0.19159,-4.93875 0.40611,-3.825 0.21452,1.11375 0.86811,2.03053 1.45244,2.03729 0.58432,0.007 1.94043,0.24781 3.01358,0.53566 1.53028,0.41048 2.04643,0.0681 2.39277,-1.58729 0.32466,-1.55179 0.40378,-1.39575 0.29882,0.58934 -0.12985,2.45569 -0.42632,2.7 -3.2764,2.7 -2.75184,0 -3.2049,0.32896 -3.71852,2.7 -0.39353,1.81664 -0.57962,0.78605 -0.5688,-3.15 z"
       style="fill:#f3f2f2" />
    <path
       inkscape:connector-curvature="0"
       id="path3871"
       d="m 565.9176,751.6958 c 2.1e-4,-0.37125 10.12535,-0.675 22.5003,-0.675 12.37496,0 22.49979,0.30375 22.49962,0.675 -1.7e-4,0.37125 -10.12531,0.675 -22.50031,0.675 -12.375,0 -22.49983,-0.30375 -22.49961,-0.675 z m 20.96931,-47.925 c 0,-2.7225 0.16872,-3.83625 0.37493,-2.475 0.20621,1.36125 0.20621,3.58875 0,4.95 -0.20621,1.36125 -0.37493,0.2475 -0.37493,-2.475 z m 1.66515,2.12129 c -0.15019,-3.15059 1.40302,-4.24726 4.80579,-3.39322 1.55205,0.38954 2.20854,0.0967 2.52409,-1.1258 0.34546,-1.33844 0.4463,-1.26765 0.53087,0.37273 0.1075,2.08509 -0.42792,2.32717 -4.55494,2.05942 -2.00109,-0.12982 -2.47386,0.2734 -2.79015,2.37964 -0.37759,2.5145 -0.38195,2.51202 -0.51566,-0.29277 z m 0.007,-5.72129 c 0,-1.2375 0.20427,-1.74375 0.45394,-1.125 0.24967,0.61875 0.24967,1.63125 0,2.25 -0.24967,0.61875 -0.45394,0.1125 -0.45394,-1.125 z"
       style="fill:#eae9e9" />
    <path
       inkscape:connector-curvature="0"
       id="path3869"
       d="m 577.39221,751.6985 c 6.06375,-0.15571 15.98625,-0.15571 22.05,0 6.06375,0.15571 1.1025,0.2831 -11.025,0.2831 -12.1275,0 -17.08875,-0.12739 -11.025,-0.2831 z m 14.625,-48.8277 c -1.64517,-1.06319 -0.22418,-1.06319 2.25,0 1.18687,0.51001 1.34015,0.79034 0.45,0.82296 -0.7425,0.0272 -1.9575,-0.34312 -2.7,-0.82296 z"
       style="fill:#d4d4d4" />
  </g>
</svg>
