<?xml version="1.0" encoding="UTF-8" standalone="no"?>
<!-- Created with Inkscape (http://www.inkscape.org/) -->

<svg
   xmlns:dc="http://purl.org/dc/elements/1.1/"
   xmlns:cc="http://creativecommons.org/ns#"
   xmlns:rdf="http://www.w3.org/1999/02/22-rdf-syntax-ns#"
   xmlns:svg="http://www.w3.org/2000/svg"
   xmlns="http://www.w3.org/2000/svg"
   xmlns:sodipodi="http://sodipodi.sourceforge.net/DTD/sodipodi-0.dtd"
   xmlns:inkscape="http://www.inkscape.org/namespaces/inkscape"
   width="110"
   height="60"
   id="svg2"
   version="1.1"
   inkscape:version="0.48.4 r9939"
   sodipodi:docname="solution_icon_diti-cx.svg">
  <defs
     id="defs4" />
  <sodipodi:namedview
     id="base"
     pagecolor="#ffffff"
     bordercolor="#666666"
     borderopacity="1.0"
     inkscape:pageopacity="0.0"
     inkscape:pageshadow="2"
     inkscape:zoom="7.9195959"
     inkscape:cx="56.137626"
     inkscape:cy="27.058952"
     inkscape:document-units="px"
     inkscape:current-layer="layer1"
     showgrid="false"
     fit-margin-top="0"
     fit-margin-left="0"
     fit-margin-right="0"
     fit-margin-bottom="0"
     inkscape:window-width="1366"
     inkscape:window-height="705"
     inkscape:window-x="-8"
     inkscape:window-y="-8"
     inkscape:window-maximized="1" />
  <metadata
     id="metadata7">
    <rdf:RDF>
      <cc:Work
         rdf:about="">
        <dc:format>image/svg+xml</dc:format>
        <dc:type
           rdf:resource="http://purl.org/dc/dcmitype/StillImage" />
        <dc:title></dc:title>
      </cc:Work>
    </rdf:RDF>
  </metadata>
  <g
     inkscape:label="Layer 1"
     inkscape:groupmode="layer"
     id="layer1"
     transform="translate(-523.28571,-695.29071)">
    <path
       inkscape:connector-curvature="0"
       id="path3808"
       d="m 586.12988,751.55726 c -0.91289,-1.71608 0.42603,-11.40204 1.77049,-12.80796 0.54665,-0.57165 1.25543,-0.29243 2.07442,0.81722 1.08273,1.46698 1.24405,1.49513 1.24405,0.21708 0,-0.80765 0.48843,-1.49932 1.08542,-1.53702 0.86833,-0.0549 0.86833,-0.15615 0,-0.50653 -1.50309,-0.6065 -1.36132,-2.60659 0.22799,-3.21646 0.72238,-0.2772 3.82793,-0.76163 6.90122,-1.0765 l 5.5878,-0.57248 0.62135,2.47569 c 0.5743,2.28819 0.003,3.05248 -7.55246,10.091 -8.28577,7.71957 -10.50382,8.85379 -11.96028,6.11596 z m -16.35226,-17.85098 c -10.19661,-10.19662 -10.35667,-11.19237 -2.93665,-18.26987 7.22591,-6.89236 7.95311,-6.76833 17.98231,3.06696 10.24105,10.04304 10.41912,11.09058 3.11411,18.31935 -7.19188,7.11685 -8.07865,6.96467 -18.15977,-3.11644 z m -18.90026,-16.17273 c -1.32474,-2.14347 0.57349,-5.1317 7.64349,-12.03256 10.0997,-9.85808 13.28758,-9.55019 11.48828,1.10956 -1.08282,6.41504 -1.89954,7.60772 -3.60886,5.27009 -1.01193,-1.38388 -1.23151,-1.43525 -1.23151,-0.28807 0,0.76786 -0.48844,1.59319 -1.08542,1.83408 -0.86834,0.35038 -0.86834,0.45168 0,0.50652 1.52875,0.0966 1.35439,2.38455 -0.228,2.99177 -3.08626,1.1843 -12.35358,1.61891 -12.97798,0.60861 z"
       style="fill:#f8f6f6" />
    <path
       inkscape:connector-curvature="0"
       id="path3806"
       d="m 586.87237,751.76858 c -0.73986,-0.89149 -0.90208,-2.69292 -0.50917,-5.65476 0.96215,-7.25308 2.17255,-8.75724 4.00465,-4.97659 0.87522,1.80607 0.85058,1.83435 -0.32608,0.37423 -1.23066,-1.52712 -1.2883,-1.52712 -1.73828,0 -3.31644,11.2555 -1.18968,11.70195 8.73184,1.83298 4.39304,-4.36976 7.75174,-8.32624 7.46378,-8.79217 -0.29012,-0.46942 -0.0766,-0.57089 0.47893,-0.22757 0.55138,0.34077 1.00251,1.11067 1.00251,1.71088 0,1.28243 -15.85332,17.04126 -17.14343,17.04126 -0.48344,0 -1.36758,-0.58872 -1.96475,-1.30826 z m 4.95163,-10.32147 c -0.35533,-0.90413 -0.44147,-1.84845 -0.19144,-2.09847 0.79198,-0.79198 1.48882,0.50585 1.15697,2.15479 -0.30413,1.51119 -0.35058,1.50848 -0.96553,-0.0564 z m -21.56686,-8.07036 c -8.16661,-8.02354 -10.17294,-11.33005 -7.77437,-12.81245 0.43305,-0.26764 0.60738,0.20161 0.38741,1.04277 -0.27869,1.06571 2.20998,4.0936 8.20854,9.98707 4.73466,4.65171 9.08298,8.45767 9.66291,8.45767 0.57994,0 3.39884,-2.2362 6.26424,-4.96931 3.996,-3.81154 5.1229,-5.42388 4.83681,-6.92041 -0.20513,-1.07311 -0.0386,-1.7445 0.36993,-1.49197 0.4086,0.25252 0.7429,1.47548 0.7429,2.71767 0,2.96555 -9.23634,12.40069 -12.13941,12.40069 -1.35742,0 -4.73994,-2.69467 -10.55896,-8.41173 z m 22.69837,4.07005 c -1.66894,-1.30546 -1.83592,-1.70252 -0.72228,-1.71736 2.36031,-0.0314 4.19562,0.95033 4.19562,2.24443 0,1.63078 -0.88671,1.49622 -3.47334,-0.52707 z m -41.46304,-20.09654 c -1.35808,-1.36489 -1.39434,-3.05512 -0.0829,-3.86562 0.58219,-0.35981 0.76823,-0.24052 0.44373,0.28453 -1.17493,1.90108 1.51482,2.69761 6.21673,1.84099 5.62401,-1.02462 8.63826,-0.60188 5.36208,0.75201 -3.90652,1.61439 -10.7527,2.18096 -11.93962,0.98809 z m 8.68901,-5.92366 c 0.15289,-0.73281 0.94682,-1.27811 1.76429,-1.21178 0.92085,0.0748 1.48632,-0.50341 1.48632,-1.51959 0,-2.02583 2.2293,-2.15733 3.32678,-0.19624 0.73121,1.3066 0.85201,1.28595 1.26983,-0.21709 0.25397,-0.91356 0.71645,-3.16627 1.02774,-5.00601 0.84609,-5.00041 1.55527,-3.16339 0.8764,2.27013 -0.82442,6.59844 -1.71142,7.73176 -3.8995,4.98236 l -1.72763,-2.17084 0.21444,2.07396 c 0.17743,1.71606 -0.2024,2.09583 -2.2011,2.20072 -1.75211,0.0919 -2.3392,-0.23917 -2.13757,-1.20562 z m -5.43275,-0.94839 c 0,-0.23879 2.53988,-2.95147 5.64418,-6.02818 3.1043,-3.0767 5.64418,-5.39863 5.64418,-5.15984 0,0.23879 -2.53988,2.95147 -5.64418,6.02818 -3.1043,3.0767 -5.64418,5.39863 -5.64418,5.15984 z"
       style="fill:#f4f3f3" />
    <path
       inkscape:connector-curvature="0"
       id="path3804"
       d="m 586.58771,751.62961 c -0.31839,-0.31838 -0.57889,-1.17457 -0.57889,-1.90263 0,-1.01617 0.28638,-0.9321 1.23253,0.36181 1.42876,1.95392 1.3704,1.99402 12.00959,-8.25281 3.2237,-3.10481 5.86127,-5.2024 5.86127,-4.66129 0,0.54109 -3.37882,4.14506 -7.50849,8.00882 -6.91148,6.46642 -9.48801,7.97411 -11.01601,6.4461 z m -16.23987,-18.16832 c -4.19228,-4.10236 -7.79508,-8.10756 -8.00621,-8.90044 -0.21113,-0.79288 3.37521,2.36823 7.96967,7.02468 4.72973,4.79355 9.06754,8.46628 9.99941,8.46628 0.90524,0 4.12063,-2.47476 7.14534,-5.49946 6.81936,-6.81937 7.30485,-5.81608 0.59143,1.22224 -6.95754,7.29426 -8.02395,7.15487 -17.69964,-2.3133 z m 22.99072,3.57895 c -1.41605,-1.07104 -1.45959,-1.2793 -0.27229,-1.3025 0.77729,-0.0152 1.8997,0.55851 2.49425,1.27489 1.38549,1.66942 -0.0281,1.68699 -2.22196,0.0276 z M 552.3608,717.76808 c -1.86473,-0.75201 -1.19003,-1.59418 1.30251,-1.62581 1.31336,-0.0167 4.28571,-0.33993 6.60524,-0.71836 2.65685,-0.43347 4.02632,-0.37901 3.70111,0.14719 -0.28392,0.45938 -2.32936,1.10714 -4.54542,1.43946 -2.21606,0.33232 -4.46769,0.7372 -5.00361,0.89974 -0.53592,0.16253 -1.46284,0.0985 -2.05983,-0.14222 z m 7.59794,-6.42865 c 0,-1.38342 1.50356,-1.60712 3.07562,-0.45761 1.48005,1.08224 1.42677,1.16615 -0.74041,1.16615 -1.28436,0 -2.33521,-0.31884 -2.33521,-0.70854 z m 6.4966,-0.86124 c -0.34649,-1.09168 -1.06177,-1.62534 -1.79919,-1.34236 -0.71076,0.27274 -1.22406,-0.065 -1.22406,-0.80553 0,-1.95882 2.70559,-1.51234 3.24094,0.53481 0.35988,1.37619 0.64943,1.5323 1.20791,0.65126 0.56843,-0.89673 0.73758,-0.82672 0.74787,0.30951 0.0202,2.23786 -1.52322,2.70109 -2.17347,0.65231 z m 2.32387,-4.29148 c 0,-1.19397 0.19709,-1.68241 0.43797,-1.08542 0.24089,0.59698 0.24089,1.57385 0,2.17084 -0.24088,0.59698 -0.43797,0.10854 -0.43797,-1.08542 z m 0.79978,-3.83516 c -0.0377,-0.91536 0.16753,-1.42823 0.45607,-1.13969 0.28854,0.28854 0.31938,1.03749 0.0686,1.66431 -0.2772,0.6927 -0.48296,0.48695 -0.52462,-0.52462 z"
       style="fill:#e9e8e8" />
    <path
       inkscape:connector-curvature="0"
       id="path3802"
       d="m 588.61383,751.60678 c 0.71638,-0.25555 4.81926,-3.83914 9.11753,-7.96355 l 7.81502,-7.49894 -7.79692,8.03211 c -4.2883,4.41766 -8.39119,8.00126 -9.11753,7.96355 -1.16121,-0.0603 -1.16339,-0.12463 -0.0181,-0.53317 z m -7.4499,-11.5941 c 1.39477,-0.41701 4.14552,-2.23949 6.11274,-4.04996 2.57568,-2.37044 2.43079,-2.13734 -0.51765,0.83283 -2.66815,2.68782 -4.7975,4.09859 -6.11274,4.04996 -1.77348,-0.0656 -1.71068,-0.16662 0.51765,-0.83283 z m -11.21932,-7.7759 c -4.27836,-4.29826 -7.58344,-7.81502 -7.34465,-7.81502 0.23879,0 3.93463,3.51676 8.21298,7.81502 4.27835,4.29826 7.58344,7.81503 7.34465,7.81503 -0.23879,0 -3.93463,-3.51677 -8.21298,-7.81503 z M 555.1829,716.55692 c 4.3986,-0.90982 7.95273,-0.86904 4.34168,0.0498 -1.43276,0.36457 -3.77727,0.66416 -5.21002,0.66575 -2.19024,0.003 -2.05199,-0.11152 0.86834,-0.71556 z m 5.01101,-5.68482 c 0.28854,-0.28854 1.03749,-0.31939 1.66432,-0.0685 0.6927,0.2772 0.48694,0.48296 -0.52462,0.52462 -0.91537,0.0377 -1.42823,-0.16753 -1.1397,-0.45607 z m 3.23818,-2.60803 c 0,-0.71866 1.68607,-1.12506 2.07264,-0.49958 0.25078,0.40578 -0.11297,0.73778 -0.80834,0.73778 -0.69536,0 -1.2643,-0.1072 -1.2643,-0.2382 z"
       style="fill:#dadada" />
  </g>
</svg>
