<?xml version="1.0" encoding="UTF-8" standalone="no"?>
<!-- Created with Inkscape (http://www.inkscape.org/) -->

<svg
   xmlns:dc="http://purl.org/dc/elements/1.1/"
   xmlns:cc="http://creativecommons.org/ns#"
   xmlns:rdf="http://www.w3.org/1999/02/22-rdf-syntax-ns#"
   xmlns:svg="http://www.w3.org/2000/svg"
   xmlns="http://www.w3.org/2000/svg"
   xmlns:sodipodi="http://sodipodi.sourceforge.net/DTD/sodipodi-0.dtd"
   xmlns:inkscape="http://www.inkscape.org/namespaces/inkscape"
   width="130"
   height="60"
   id="svg2"
   version="1.1"
   inkscape:version="0.48.4 r9939"
   sodipodi:docname="solution_icon_diti-cx_hover.svg">
  <defs
     id="defs4" />
  <sodipodi:namedview
     id="base"
     pagecolor="#ffffff"
     bordercolor="#666666"
     borderopacity="1.0"
     inkscape:pageopacity="0.0"
     inkscape:pageshadow="2"
     inkscape:zoom="7.9195959"
     inkscape:cx="33.704346"
     inkscape:cy="33.725327"
     inkscape:document-units="px"
     inkscape:current-layer="layer1"
     showgrid="false"
     fit-margin-top="0"
     fit-margin-left="0"
     fit-margin-right="0"
     fit-margin-bottom="0"
     inkscape:window-width="1366"
     inkscape:window-height="705"
     inkscape:window-x="-8"
     inkscape:window-y="-8"
     inkscape:window-maximized="1" />
  <metadata
     id="metadata7">
    <rdf:RDF>
      <cc:Work
         rdf:about="">
        <dc:format>image/svg+xml</dc:format>
        <dc:type
           rdf:resource="http://purl.org/dc/dcmitype/StillImage" />
        <dc:title />
      </cc:Work>
    </rdf:RDF>
  </metadata>
  <g
     inkscape:label="Layer 1"
     inkscape:groupmode="layer"
     id="layer1"
     transform="translate(-523.28571,-695.29071)">
    <path
       inkscape:connector-curvature="0"
       id="path3836"
       d="m 596.57206,752.20365 c -0.6986,-1.82053 1.39495,-12.99007 2.43475,-12.99007 0.43516,0 0.7912,0.32473 0.7912,0.72169 0,0.39693 0.62859,1.50104 1.39687,2.4536 1.33801,1.65894 1.38028,1.62565 1.00275,-0.79068 -0.36413,-2.33092 -0.21607,-2.48044 1.94899,-1.96787 l 2.34305,0.55474 -2.59497,-2.1205 c -3.1318,-2.55914 -2.47107,-2.9719 6.17509,-3.85772 l 5.78823,-0.59303 0,2.7326 c 0,2.29358 -1.22949,3.85434 -7.65276,9.7146 -7.82019,7.13474 -10.6742,8.64172 -11.6332,6.14264 z m -16.68072,-18.234 c -10.20595,-10.04233 -10.43859,-11.4451 -3.07218,-18.524 3.35224,-3.22141 5.71756,-4.78322 7.24414,-4.78322 3.12268,0 19.32035,15.58485 19.31045,18.57988 -0.005,1.29605 -1.89801,4.0564 -5.04988,7.36082 -7.19188,7.53994 -8.24648,7.38925 -18.43253,-2.63348 z M 561.6555,718.10128 c -2.79233,-1.1261 -0.87913,-4.58834 6.70931,-12.14161 10.55312,-10.50421 12.76054,-10.44779 10.84384,0.27725 -1.1288,6.31643 -2.03682,7.63202 -3.05454,4.42551 -0.31151,-0.98144 -0.96787,-1.78445 -1.45858,-1.78445 -0.50517,0 -0.62979,0.82687 -0.28731,1.90595 0.54569,1.71929 0.35498,1.84901 -1.94736,1.32464 -2.41473,-0.54996 -2.45896,-0.5084 -0.82039,0.77074 0.95256,0.74361 2.10584,1.35202 2.56285,1.35202 0.45705,0 0.36736,0.5586 -0.19926,1.24134 -0.56662,0.68274 -2.87537,1.51803 -5.13055,1.85621 -2.25519,0.33821 -4.55088,0.75154 -5.10152,0.91855 -0.55067,0.167 -1.50309,0.10124 -2.11649,-0.14615 z"
       style="fill:#89d6f5;fill-opacity:1" />
    <path
       inkscape:connector-curvature="0"
       id="path3834"
       d="m 596.94058,751.92775 c -0.4507,-2.25818 1.19007,-11.82198 2.02814,-11.82198 0.38998,0 0.97093,0.82512 1.291,1.83359 0.74283,2.34046 2.74843,1.72964 2.39414,-0.72916 -0.21289,-1.47751 0.10317,-1.75574 1.56138,-1.37442 2.35919,0.61694 2.40017,-1.2127 0.0439,-1.96055 -2.7842,-0.88367 -2.10675,-2.08925 1.56064,-2.77723 12.33519,-2.31411 12.83611,-0.0691 2.33787,10.47814 -7.76838,7.80454 -10.60637,9.41155 -11.21706,6.35161 z m -16.56604,-18.30733 c -6.0063,-6.03138 -8.23543,-8.87662 -8.23543,-10.51156 0,-2.68237 9.38876,-12.44643 11.96801,-12.44643 0.91065,0 5.41588,3.68748 10.01162,8.19439 10.48265,10.27994 10.73393,11.60334 3.50213,18.44286 -2.98514,2.82322 -5.65406,4.59055 -6.93236,4.59055 -1.43471,0 -4.6294,-2.56152 -10.31397,-8.26981 z m -19.16515,-16.3259 c -1.65443,-1.69096 -0.14216,-4.07108 7.28181,-11.46064 9.69121,-9.6463 11.36073,-9.83995 10.45905,-1.21303 -0.60702,5.80751 -1.86746,8.33726 -2.86236,5.74468 -0.85689,-2.23307 -2.99162,-1.87808 -2.39631,0.39848 0.41846,1.6002 0.20297,1.79392 -1.42186,1.27822 -1.0871,-0.34505 -1.91507,-0.22207 -1.91507,0.2844 0,0.49071 0.8478,1.1613 1.88395,1.49018 1.58914,0.50437 1.69386,0.78778 0.66917,1.81128 -1.38235,1.3807 -10.68183,2.70546 -11.69838,1.66643 z"
       style="fill:#73d7db;fill-opacity:1" />
    <path
       inkscape:connector-curvature="0"
       id="path3832"
       d="m 596.92551,751.56333 c -0.5256,-1.57685 1.23643,-11.45756 2.04321,-11.45756 0.38998,0 0.97093,0.82512 1.291,1.83359 0.73242,2.30766 2.72882,1.71946 2.46456,-0.72618 -0.15212,-1.40802 0.20044,-1.71487 1.5614,-1.35898 2.51966,0.65892 2.29628,-2.13396 -0.23496,-2.93734 -1.91841,-0.60889 -1.92676,-0.6569 -0.22305,-1.28555 0.97337,-0.35916 3.87591,-0.94201 6.45006,-1.29525 7.67276,-1.05285 7.27691,0.9071 -2.08227,10.30988 -7.44361,7.47825 -10.46486,9.33265 -11.26995,6.91739 z m -16.55097,-18.83515 c -4.91823,-4.93877 -8.23543,-8.99309 -8.23543,-10.06542 0,-2.25241 9.72165,-12.00033 11.96801,-12.00033 0.91065,0 5.41588,3.68748 10.01162,8.19439 10.26407,10.06556 10.44702,10.98246 3.50213,17.55066 -2.98514,2.82318 -5.65406,4.59053 -6.93236,4.59053 -1.43471,0 -4.6294,-2.56154 -10.31397,-8.26983 z M 560.87548,715.6025 c -0.84907,-2.21258 14.87669,-17.94752 17.08871,-17.09869 1.32769,0.50949 1.45355,1.35215 0.91404,6.12067 -0.75858,6.70509 -1.27731,7.71252 -2.60251,5.05444 -1.15575,-2.31821 -2.91058,-2.063 -2.57507,0.37453 0.16913,1.22872 -0.19094,1.4901 -1.48632,1.07898 -2.67338,-0.84851 -3.12646,1.18205 -0.52794,2.366 3.03147,1.38123 1.51607,2.27192 -5.21051,3.06248 -4.26255,0.50099 -5.09505,0.35853 -5.6004,-0.95841 z"
       style="fill:#73d3f3;fill-opacity:1" />
    <path
       inkscape:connector-curvature="0"
       id="path3830"
       d="m 597.54205,751.66355 c -0.72686,-1.17609 0.3923,-9.61905 1.35382,-10.21332 0.39335,-0.24306 0.94539,0.15798 1.22677,0.89122 0.75809,1.97563 3.24427,1.62984 3.24427,-0.45122 0,-1.21342 0.59481,-1.78446 1.8588,-1.78446 2.31823,0 1.82815,-1.87586 -0.84082,-3.21841 -1.73681,-0.87365 -1.316,-1.09559 3.63935,-1.9192 4.59063,-0.76303 5.84508,-0.69932 6.94156,0.35249 1.17893,1.13094 0.33015,2.2363 -7.12588,9.28007 -4.65531,4.3979 -8.74698,7.99617 -9.09261,7.99617 -0.34563,0 -0.888,-0.42 -1.20526,-0.93334 z m -17.09841,-18.97007 c -4.56751,-4.56749 -8.30453,-9.0012 -8.30453,-9.85268 0,-1.84149 7.71041,-10.32463 10.26055,-11.28882 1.03825,-0.39256 2.71721,-0.19509 4.015,0.47225 3.52171,1.81086 16.06001,15.18969 16.06001,17.1366 0,2.14207 -9.95159,11.83718 -12.15034,11.83718 -0.86687,0 -5.3132,-3.73704 -9.88069,-8.30453 z m -19.33242,-17.12003 c -0.3772,-0.98306 1.91992,-3.76767 7.57584,-9.18345 4.46447,-4.27491 8.57317,-7.77257 9.13046,-7.77257 1.07155,0 1.10865,6.22166 0.0612,10.26055 l -0.57846,2.23058 -0.76735,-2.00751 c -1.08904,-2.84901 -3.84098,-2.69494 -3.2906,0.18427 0.35359,1.8496 0.17922,2.06341 -1.11701,1.36973 -0.84477,-0.45212 -1.78953,-0.56851 -2.0994,-0.25864 -1.17758,1.17757 -0.48699,2.84669 1.42943,3.45494 1.91716,0.60851 1.92561,0.65691 0.22305,1.27485 -0.97337,0.35328 -3.62737,0.91588 -5.89775,1.25021 -3.32025,0.48896 -4.23389,0.33182 -4.66937,-0.80296 z"
       style="fill:#78d0fd" />
  </g>
</svg>
