<?xml version="1.0" encoding="UTF-8" standalone="no"?>
<!-- Created with Inkscape (http://www.inkscape.org/) -->

<svg
   xmlns:dc="http://purl.org/dc/elements/1.1/"
   xmlns:cc="http://creativecommons.org/ns#"
   xmlns:rdf="http://www.w3.org/1999/02/22-rdf-syntax-ns#"
   xmlns:svg="http://www.w3.org/2000/svg"
   xmlns="http://www.w3.org/2000/svg"
   xmlns:sodipodi="http://sodipodi.sourceforge.net/DTD/sodipodi-0.dtd"
   xmlns:inkscape="http://www.inkscape.org/namespaces/inkscape"
   width="110"
   height="60"
   id="svg2"
   version="1.1"
   inkscape:version="0.48.4 r9939"
   sodipodi:docname="solution_icon_biz-transform.svg">
  <defs
     id="defs4" />
  <sodipodi:namedview
     id="base"
     pagecolor="#ffffff"
     bordercolor="#666666"
     borderopacity="1.0"
     inkscape:pageopacity="0.0"
     inkscape:pageshadow="2"
     inkscape:zoom="7.9195959"
     inkscape:cx="57.948286"
     inkscape:cy="29.80393"
     inkscape:document-units="px"
     inkscape:current-layer="layer1"
     showgrid="false"
     fit-margin-top="0"
     fit-margin-left="0"
     fit-margin-right="0"
     fit-margin-bottom="0"
     inkscape:window-width="1366"
     inkscape:window-height="705"
     inkscape:window-x="-8"
     inkscape:window-y="-8"
     inkscape:window-maximized="1" />
  <metadata
     id="metadata7">
    <rdf:RDF>
      <cc:Work
         rdf:about="">
        <dc:format>image/svg+xml</dc:format>
        <dc:type
           rdf:resource="http://purl.org/dc/dcmitype/StillImage" />
        <dc:title></dc:title>
      </cc:Work>
    </rdf:RDF>
  </metadata>
  <g
     inkscape:label="Layer 1"
     inkscape:groupmode="layer"
     id="layer1"
     transform="translate(-523.28571,-695.29071)">
    <g
       id="g3928"
       transform="translate(-1.7880723,-0.50507633)">
      <path
         style="fill:#f8f6f6"
         d="m 576.80339,752.2191 c -1.81967,-1.10942 -4.05881,-3.3245 -4.97588,-4.92239 -1.53708,-2.67821 -2.02097,-2.86737 -6.19151,-2.42032 -11.55341,1.23844 -19.19915,-10.70082 -11.88216,-18.55468 l 2.11706,-2.2724 -2.12951,-3.78896 c -3.99974,-7.11658 -1.91728,-21.89672 3.22035,-22.85626 7.1501,-1.3354 14.93816,4.67381 20.52846,15.83962 2.49458,4.98256 4.23608,7.3662 5.18832,7.10138 9.2144,-2.56256 12.20111,-3.10138 17.19113,-3.10138 3.85163,0 7.15081,0.67795 9.74863,2.00327 7.55056,3.85201 7.52857,8.35188 -0.0756,15.46468 -5.12258,4.79157 -8.45214,6.53205 -12.49591,6.53205 -1.7879,0 -2.4349,0.54464 -2.4349,2.04966 0,3.34251 -2.82504,7.80851 -5.96727,9.43341 -3.99523,2.06602 -7.89403,1.89886 -11.84122,-0.50768 z"
         id="path3936"
         inkscape:connector-curvature="0" />
      <path
         style="fill:#f5f4f4"
         d="m 576.22676,751.15541 c -1.46016,-1.14856 -3.29931,-3.33457 -4.08701,-4.8578 -1.33004,-2.57202 -1.78031,-2.73606 -6.31442,-2.30039 -3.33651,0.3206 -5.87912,-0.0464 -8.03092,-1.15912 -3.99102,-2.06384 -6.47683,-6.6246 -5.31804,-9.75711 0.83493,-2.25704 0.87448,-2.24274 2.50228,0.90507 2.34739,4.53937 4.93777,5.61525 11.7942,4.89861 l 5.82559,-0.60889 1.3687,3.23396 c 3.55287,8.39469 12.42277,9.93146 16.11473,2.792 1.23748,-2.39301 1.31927,-3.42262 0.39008,-4.91049 -0.64664,-1.03544 -0.89176,-2.62257 -0.54471,-3.52696 0.52334,-1.36381 1.56286,-1.53483 6.09297,-1.00241 l 5.46198,0.64195 5.70779,-5.70779 c 3.96557,-3.96557 5.94115,-5.3302 6.47233,-4.47074 1.55103,2.50962 -1.62623,7.04174 -8.45047,12.05394 -2.90239,2.13173 -5.03002,2.86447 -8.31739,2.86447 -4.01461,0 -4.35734,0.18906 -3.75917,2.07372 0.87892,2.76925 -1.16813,7.46348 -4.08934,9.37753 -3.40557,2.23141 -9.62951,1.96945 -12.81918,-0.53955 z m -18.50579,-27.54784 c -1.16628,-0.8169 -2.79294,-2.78561 -3.6148,-4.3749 -1.80295,-3.48653 -1.89891,-11.63291 -0.1736,-14.73908 1.12804,-2.03089 1.27261,-1.68988 1.4838,3.5 0.3134,7.70162 0.831,9.01026 4.26638,10.78677 3.06998,1.58754 3.94395,4.85995 1.54393,5.78092 -0.76186,0.29235 -2.33943,-0.13682 -3.50571,-0.95371 z"
         id="path3934"
         inkscape:connector-curvature="0" />
      <path
         style="fill:#f0eeee"
         d="m 579.61188,752.53748 c -2.38482,-0.87178 -6.13488,-4.59365 -7.07179,-7.01862 -0.77036,-1.9939 -1.47783,-2.20151 -6.81543,-2 -4.72782,0.17849 -6.53904,-0.20938 -8.78431,-1.88113 -1.55566,-1.15829 -2.98605,-2.90853 -3.17865,-3.88942 -0.3082,-1.56968 0.032,-1.51132 2.8382,0.48687 2.7245,1.94001 4.04328,2.19279 9.06466,1.73747 l 5.87629,-0.53284 1.78551,3.65195 c 2.10239,4.30006 7.82014,7.55784 11.59983,6.6092 1.36843,-0.34345 3.46227,-1.53209 4.65298,-2.64141 2.56678,-2.39131 3.64496,-1.82836 2.08409,1.08816 -1.99294,3.72383 -7.94361,5.89139 -12.05138,4.38977 z m 14.5,-13.17191 c -1.70422,-0.36442 -3,-1.28515 -3,-2.13168 0,-1.15411 1.05442,-1.41687 4.67545,-1.1651 5.41802,0.37671 7.49537,-0.5587 13.46884,-6.06484 5.58638,-5.14935 5.65958,-3.13456 0.10571,2.90972 -3.76807,4.10079 -9.24879,7.54742 -11.46788,7.21172 -0.43017,-0.0651 -2.13212,-0.40699 -3.78212,-0.75982 z m -38.42742,-18.75672 c -2.02458,-2.57384 -2.64253,-4.36514 -1.50586,-4.36514 1.07042,0 7.43328,5.23757 7.43328,6.11869 0,1.90965 -3.96972,0.73526 -5.92742,-1.75355 z"
         id="path3932"
         inkscape:connector-curvature="0" />
      <path
         style="fill:#edecec"
         d="m 576.91764,749.7519 -2.80576,-2.4918 3.30875,1.59435 c 3.18956,1.53693 7.44261,1.52162 11.69125,-0.0421 1.72914,-0.6364 1.68028,-0.45389 -0.36078,1.34762 -3.27371,2.88948 -8.31621,2.71558 -11.83346,-0.4081 z m -19.44498,-8.59189 c -1.99496,-1.76082 -2.05086,-1.95452 -0.36078,-1.25 1.1,0.45853 4.8125,0.77941 8.25,0.71306 6.63583,-0.1281 8.33099,0.95444 3.125,1.99564 -5.4731,1.09462 -8.58889,0.68197 -11.01422,-1.4587 z m 34.80589,-2.58297 c -1.64571,-1.6457 -0.31192,-2.1982 4.08333,-1.69142 4.17693,0.4816 5.29291,0.16845 9.25,-2.59561 l 4.5,-3.14328 -4.37861,4.04849 c -3.67204,3.39519 -5.05712,4.04849 -8.58333,4.04849 -2.3126,0 -4.50473,-0.3 -4.87139,-0.66667 z m -35.66667,-17.83333 c -1.59557,-1.92255 0.0323,-1.94278 2.55887,-0.0318 1.63076,1.23344 1.6809,1.47328 0.31357,1.5 -0.89515,0.0175 -2.18775,-0.6432 -2.87244,-1.4682 z"
         id="path3930"
         inkscape:connector-curvature="0" />
    </g>
  </g>
</svg>
