<?xml version="1.0" encoding="UTF-8" standalone="no"?>
<!-- Created with Inkscape (http://www.inkscape.org/) -->

<svg
   xmlns:dc="http://purl.org/dc/elements/1.1/"
   xmlns:cc="http://creativecommons.org/ns#"
   xmlns:rdf="http://www.w3.org/1999/02/22-rdf-syntax-ns#"
   xmlns:svg="http://www.w3.org/2000/svg"
   xmlns="http://www.w3.org/2000/svg"
   xmlns:sodipodi="http://sodipodi.sourceforge.net/DTD/sodipodi-0.dtd"
   xmlns:inkscape="http://www.inkscape.org/namespaces/inkscape"
   width="110"
   height="60"
   id="svg2"
   version="1.1"
   inkscape:version="0.48.4 r9939"
   sodipodi:docname="solution_icon_biz-transform_hover.svg">
  <defs
     id="defs4" />
  <sodipodi:namedview
     id="base"
     pagecolor="#ffffff"
     bordercolor="#666666"
     borderopacity="1.0"
     inkscape:pageopacity="0.0"
     inkscape:pageshadow="2"
     inkscape:zoom="7.9195959"
     inkscape:cx="39.429625"
     inkscape:cy="29.80393"
     inkscape:document-units="px"
     inkscape:current-layer="layer1"
     showgrid="false"
     fit-margin-top="0"
     fit-margin-left="0"
     fit-margin-right="0"
     fit-margin-bottom="0"
     inkscape:window-width="1366"
     inkscape:window-height="705"
     inkscape:window-x="-8"
     inkscape:window-y="-8"
     inkscape:window-maximized="1" />
  <metadata
     id="metadata7">
    <rdf:RDF>
      <cc:Work
         rdf:about="">
        <dc:format>image/svg+xml</dc:format>
        <dc:type
           rdf:resource="http://purl.org/dc/dcmitype/StillImage" />
        <dc:title />
      </cc:Work>
    </rdf:RDF>
  </metadata>
  <g
     inkscape:label="Layer 1"
     inkscape:groupmode="layer"
     id="layer1"
     transform="translate(-523.28571,-695.29071)">
    <path
       inkscape:connector-curvature="0"
       id="path3915"
       d="m 576.57826,752.44014 c -1.77666,-0.79858 -4.13513,-2.93992 -5.24103,-4.75852 -1.89351,-3.11378 -2.3465,-3.30951 -7.7697,-3.3571 -3.68862,-0.0324 -6.69218,-0.66653 -8.35483,-1.76402 -5.46779,-3.60918 -6.55503,-11.57 -2.27488,-16.65668 l 2.62926,-3.12469 -2.30269,-2.4511 c -1.91261,-2.03588 -2.31567,-3.59474 -2.37926,-9.20204 -0.0421,-3.71301 0.54291,-8.21915 1.30003,-10.01365 3.91949,-9.28977 17.34255,-1.85241 24.28308,13.45459 2.27836,5.02481 3.33952,6.3899 4.64651,5.97734 7.58557,-2.39447 13.30629,-3.64729 16.70042,-3.65734 8.63076,-0.0256 15.4934,3.93192 15.4934,8.9346 0,5.6075 -12.28246,15.95241 -17.41173,14.66504 -2.5608,-0.64272 -3.58827,0.72691 -3.58827,4.78319 0,3.09899 -5.00594,7.58609 -9.0939,8.15137 -1.87336,0.25904 -4.85974,-0.1824 -6.63641,-0.98099 z"
       style="fill:#84d7f6;fill-opacity:1" />
    <path
       inkscape:connector-curvature="0"
       id="path3913"
       d="m 576.02946,750.77867 c -0.9785,-0.56956 -2.8637,-2.75368 -4.18931,-4.85359 -2.32651,-3.68542 -2.56804,-3.80024 -6.95433,-3.30584 -5.7018,0.64268 -10.22429,-1.16095 -12.12441,-4.83537 -2.22882,-4.31007 -1.75773,-7.49196 1.69068,-11.41949 l 3.14352,-3.58027 -2.7832,-2.90504 c -2.52057,-2.63091 -2.77902,-3.5731 -2.73889,-9.98451 0.0715,-11.41937 3.13035,-14.15421 11.21696,-10.02873 4.76469,2.43076 7.92153,6.44138 12.10221,15.37529 3.54766,7.58118 2.34296,7.22226 13.88335,4.13631 10.43294,-2.78982 21.2653,-0.40744 22.61595,4.97396 1.35665,5.40532 -8.83515,14.52367 -16.23346,14.52367 l -4.34996,0 0,3.86364 c 0,5.47022 -3.79034,9.14732 -9.38636,9.10595 -2.2625,-0.0167 -4.91424,-0.49641 -5.89275,-1.06598 z"
       style="fill:#7bdaf3;fill-opacity:1" />
    <path
       inkscape:connector-curvature="0"
       id="path3911"
       d="m 575.66653,749.10282 c -1.17812,-0.95027 -2.87225,-3.18074 -3.76474,-4.95661 -1.54862,-3.08144 -1.82424,-3.20122 -6.03705,-2.62379 -8.51946,1.16772 -13.55617,-2.08219 -13.55617,-8.74703 0,-2.90853 0.65601,-4.27454 3,-6.24688 3.69217,-3.10675 3.73419,-4.11786 0.29412,-7.07688 -2.45695,-2.11338 -2.7044,-2.95995 -2.68974,-9.20204 0.0257,-10.96451 2.48302,-13.32501 10.10579,-9.70777 4.3617,2.06976 9.51036,8.99155 12.40259,16.67387 2.46607,6.55035 1.94253,6.41765 12.88724,3.26659 7.31388,-2.10571 13.57414,-1.98356 18.75,0.36585 5.05355,2.29389 5.49837,4.70145 1.77141,9.58775 -3.84482,5.04082 -8.77182,7.64709 -13.76403,7.28086 l -4.25738,-0.31231 -0.31653,4.48531 c -0.42959,6.08743 -3.21949,8.99248 -8.60778,8.96308 -2.33893,-0.0128 -4.98847,-0.75848 -6.21773,-1.75 z"
       style="fill:#77d5f9;fill-opacity:1" />
    <path
       inkscape:connector-curvature="0"
       id="path3909"
       d="m 575.6675,747.62506 c -1.09433,-1.2375 -2.75325,-3.48003 -3.68648,-4.98339 -1.613,-2.59842 -1.98015,-2.70427 -7.43462,-2.14358 -4.92142,0.5059 -6.12912,0.27978 -8.48783,-1.58918 -2.14213,-1.69736 -2.75,-3.0257 -2.75,-6.00943 0,-3.21063 0.60678,-4.3301 3.75,-6.91842 l 3.75,-3.08799 -3.24838,-2.759 c -3.87923,-3.29482 -5.11165,-9.35137 -3.28401,-16.13873 1.16051,-4.30982 1.2153,-4.35255 4.85308,-3.78555 5.12693,0.7991 12.1124,8.46442 15.17383,16.65061 1.27468,3.40846 2.95097,6.44025 3.7251,6.73731 0.77413,0.29706 3.7414,-0.23904 6.59394,-1.19133 8.00195,-2.67138 17.44867,-3.03909 21.68644,-0.84414 5.21028,2.69866 4.98345,5.11924 -1.00459,10.72034 -4.90777,4.59065 -5.28913,4.75473 -10.29598,4.42985 l -5.19943,-0.33737 -0.18307,4.9866 c -0.13857,3.77424 -0.71253,5.41532 -2.36079,6.75 -3.1542,2.55411 -9.13,2.30338 -11.59721,-0.4866 z"
       style="fill:#78d0fd" />
  </g>
</svg>
