<?xml version="1.0" encoding="UTF-8" standalone="no"?>
<!-- Created with Inkscape (http://www.inkscape.org/) -->

<svg
   xmlns:dc="http://purl.org/dc/elements/1.1/"
   xmlns:cc="http://creativecommons.org/ns#"
   xmlns:rdf="http://www.w3.org/1999/02/22-rdf-syntax-ns#"
   xmlns:svg="http://www.w3.org/2000/svg"
   xmlns="http://www.w3.org/2000/svg"
   xmlns:sodipodi="http://sodipodi.sourceforge.net/DTD/sodipodi-0.dtd"
   xmlns:inkscape="http://www.inkscape.org/namespaces/inkscape"
   width="110"
   height="60"
   id="svg2"
   version="1.1"
   inkscape:version="0.48.4 r9939"
   sodipodi:docname="solution_icon_optimize-efficnt_hover.svg">
  <defs
     id="defs4" />
  <sodipodi:namedview
     id="base"
     pagecolor="#ffffff"
     bordercolor="#666666"
     borderopacity="1.0"
     inkscape:pageopacity="0.0"
     inkscape:pageshadow="2"
     inkscape:zoom="11.2"
     inkscape:cx="30.152095"
     inkscape:cy="39.736651"
     inkscape:document-units="px"
     inkscape:current-layer="layer1"
     showgrid="false"
     fit-margin-top="0"
     fit-margin-left="0"
     fit-margin-right="0"
     fit-margin-bottom="0"
     inkscape:window-width="1366"
     inkscape:window-height="705"
     inkscape:window-x="-8"
     inkscape:window-y="-8"
     inkscape:window-maximized="1" />
  <metadata
     id="metadata7">
    <rdf:RDF>
      <cc:Work
         rdf:about="">
        <dc:format>image/svg+xml</dc:format>
        <dc:type
           rdf:resource="http://purl.org/dc/dcmitype/StillImage" />
        <dc:title />
      </cc:Work>
    </rdf:RDF>
  </metadata>
  <g
     inkscape:label="Layer 1"
     inkscape:groupmode="layer"
     id="layer1"
     transform="translate(-523.28571,-695.29071)">
    <path
       inkscape:connector-curvature="0"
       id="path3896"
       d="m 556.33336,750.2119 c -0.34532,-1.088 1.26798,-6.09897 4.27904,-13.29085 4.83562,-11.54986 7.0172,-14.21693 8.30641,-10.15499 0.9132,2.87723 1.6762,1.45416 5.27309,-9.8349 2.07412,-6.50972 3.2644,-12.00645 3.2644,-15.075 0,-5.28305 0.25087,-5.45434 6.2355,-4.25741 2.44016,0.48803 2.82038,0.91784 2.5875,2.925 -0.22432,1.93333 -0.75447,2.36614 -2.973,2.42714 -4.47339,0.12301 -4.94988,0.31068 -4.95294,1.95076 -0.002,0.86625 2.52964,7.73324 5.625,15.25997 5.14611,12.51335 5.79682,13.64265 7.60046,13.1906 1.72235,-0.43166 2.44232,0.44002 5.67673,6.87294 5.96978,11.8733 7.04645,11.20837 -18.60857,11.49234 -20.85791,0.23088 -21.78228,0.16851 -22.31362,-1.5056 z"
       style="fill:#84d5d3;fill-opacity:1" />
    <path
       inkscape:connector-curvature="0"
       id="path3894"
       d="m 556.22324,749.78472 c -0.26212,-0.68305 1.70572,-6.4543 4.37296,-12.825 4.85132,-11.58733 7.0324,-14.25875 8.32261,-10.19366 0.9132,2.87723 1.6762,1.45416 5.27309,-9.8349 2.07412,-6.50972 3.2644,-12.00645 3.2644,-15.075 0,-5.27633 0.25649,-5.45321 6.1875,-4.26701 2.21496,0.44299 2.8125,1.02262 2.8125,2.72819 0,1.88888 -0.37823,2.14022 -2.95911,1.96641 -3.52648,-0.2375 -5.13983,0.60026 -5.14383,2.67102 -0.002,0.83703 2.52964,7.68012 5.625,15.20685 5.16295,12.55429 5.79218,13.64381 7.61574,13.18677 1.74774,-0.43803 2.44419,0.42202 5.76678,7.12149 2.20458,4.44516 3.5442,8.23151 3.21545,9.08823 -0.49954,1.30176 -3.0231,1.46854 -22.22003,1.46854 -17.58239,0 -21.74615,-0.23364 -22.13306,-1.24193 z"
       style="fill:#90cdf4;fill-opacity:1" />
    <path
       inkscape:connector-curvature="0"
       id="path3892"
       d="m 556.31429,750.13957 c -0.65134,-1.05388 9.34741,-25.21292 10.43492,-25.21292 0.41228,0 1.33759,1.11375 2.05623,2.475 l 1.30663,2.475 0.86416,-2.25 c 3.35495,-8.73522 6.48007,-21.09558 6.48007,-25.62968 l 0,-5.18016 2.475,0.61292 c 1.36125,0.3371 3.18375,0.6736 4.05,0.74777 1.02387,0.0877 1.575,0.88885 1.575,2.28957 0,1.83009 -0.32821,2.07234 -2.17848,1.60795 -3.22663,-0.80983 -5.02046,0.23264 -5.02961,2.92292 -0.006,1.84363 10.04387,28.11497 11.37401,29.73196 0.15982,0.19429 0.85413,-0.11446 1.54292,-0.6861 1.59972,-1.32764 2.12282,-0.68538 6.39657,7.85362 1.82252,3.64142 3.09709,7.18517 2.83238,7.875 -0.39297,1.02404 -4.44093,1.25423 -22.05643,1.25423 -13.20309,0 -21.78787,-0.34422 -22.12337,-0.88708 z m 22.63806,-51.53792 c -0.24967,-0.61875 -0.45394,-0.1125 -0.45394,1.125 0,1.2375 0.20427,1.74375 0.45394,1.125 0.24967,-0.61875 0.24967,-1.63125 0,-2.25 z"
       style="fill:#78d1fd" />
  </g>
</svg>
