<?xml version="1.0" encoding="UTF-8" standalone="no"?>
<!-- Created with Inkscape (http://www.inkscape.org/) -->

<svg
   xmlns:dc="http://purl.org/dc/elements/1.1/"
   xmlns:cc="http://creativecommons.org/ns#"
   xmlns:rdf="http://www.w3.org/1999/02/22-rdf-syntax-ns#"
   xmlns:svg="http://www.w3.org/2000/svg"
   xmlns="http://www.w3.org/2000/svg"
   xmlns:sodipodi="http://sodipodi.sourceforge.net/DTD/sodipodi-0.dtd"
   xmlns:inkscape="http://www.inkscape.org/namespaces/inkscape"
   width="130"
   height="60"
   id="svg2"
   version="1.1"
   inkscape:version="0.48.4 r9939"
   sodipodi:docname="solution_icon_personal.svg">
  <defs
     id="defs4" />
  <sodipodi:namedview
     id="base"
     pagecolor="#ffffff"
     bordercolor="#666666"
     borderopacity="1.0"
     inkscape:pageopacity="0.0"
     inkscape:pageshadow="2"
     inkscape:zoom="5.6"
     inkscape:cx="35.119211"
     inkscape:cy="13.401736"
     inkscape:document-units="px"
     inkscape:current-layer="layer1"
     showgrid="false"
     fit-margin-top="0"
     fit-margin-left="0"
     fit-margin-right="0"
     fit-margin-bottom="0"
     inkscape:window-width="1366"
     inkscape:window-height="705"
     inkscape:window-x="-8"
     inkscape:window-y="-8"
     inkscape:window-maximized="1" />
  <metadata
     id="metadata7">
    <rdf:RDF>
      <cc:Work
         rdf:about="">
        <dc:format>image/svg+xml</dc:format>
        <dc:type
           rdf:resource="http://purl.org/dc/dcmitype/StillImage" />
        <dc:title />
      </cc:Work>
    </rdf:RDF>
  </metadata>
  <g
     inkscape:label="Layer 1"
     inkscape:groupmode="layer"
     id="layer1"
     transform="translate(-523.28571,-695.29071)">
    <path
       inkscape:connector-curvature="0"
       id="path3830"
       d="m 567.15755,742.57249 c -2.56304,-1.07663 -5.07552,-3.95952 -5.94911,-6.82618 -0.49484,-1.6238 -1.45333,-2.25 -3.44396,-2.25 -3.85723,0 -7.50693,-4.13251 -7.50693,-8.5 0,-4.39583 3.64801,-8.5 7.55526,-8.5 2.13025,0 2.95212,-0.57964 3.41029,-2.40517 2.52861,-10.07474 17.43445,-8.72434 17.43445,1.57948 l 0,3.82569 23.3,0 c 16.78889,0 23.63534,0.33534 24.5,1.2 0.66,0.66 1.2,2.91965 1.2,5.02144 0,3.08404 -0.47233,4.03665 -2.44779,4.93672 -1.82921,0.83345 -2.52415,2.02838 -2.75,4.72856 -0.29206,3.49193 -0.44756,3.62374 -4.6298,3.92457 -3.66967,0.26396 -4.40954,-0.002 -4.86663,-1.75 -0.38716,-1.4805 -1.35147,-2.06129 -3.42241,-2.06129 -2.2167,0 -2.88337,-0.46242 -2.88337,-2 0,-1.90476 -0.66667,-2 -14,-2 l -14,0 0,3.32569 c 0,5.46811 -6.50179,9.85003 -11.5,7.75049 z m -5.84288,-15.68254 c 1.228,-1.85277 1.16623,-2.39023 -0.51305,-4.46404 -1.68801,-2.08461 -2.21228,-2.21955 -4.5266,-1.16508 -3.08778,1.40689 -3.59055,5.56186 -0.86747,7.16882 2.41417,1.42466 4.26151,0.94315 5.90712,-1.5397 z"
       style="fill:#ffffff" />
  </g>
</svg>
